<?xml version="1.0" encoding="UTF-8"?>
<svg id="Capa_1" data-name="Capa 1" xmlns="http://www.w3.org/2000/svg" viewBox="0 0 582.37 134.85">
  <defs>
    <style>
      .cls-1 {
        fill: #e63134;
      }

      .cls-1, .cls-2 {
        stroke-width: 0px;
      }

      .cls-2 {
        fill: #fff;
      }
    </style>
  </defs>
  <g>
    <path class="cls-2" d="M14.38,44.32c4.91-11.12,7.87-22.79,14.02-33.12,1.77-2.97,3.78-5.75,6.45-8,4.53-3.81,9.5-4.25,14.56-1.18,5.15,3.12,8.93,7.68,12.74,12.2,3.55,4.23,6.9,8.62,10.89,12.47.93.9,1.92,1.76,2.95,2.54,5.67,4.3,10.97,3.61,15.43-1.97,2.2-2.74,4.4-7.19,4.79-9.8-3.17,1.56-6.41,2.43-9.89,2.49-6.27.11-11.4-2.04-15.21-7.12-.19-.26-.42-.5-.6-.77-.86-1.36-2.66-2.25-1.39-4.49,1.33-2.34,2.62-4.2,5.7-4.15,7.48.13,14.65,1.65,21.64,4.25,2.99,1.11,4.38,3.01,4.39,6.27.03,6.17.02,12.34-.14,18.51-.26,9.83.41,19.6,1.85,29.32,1.81,12.2,7.5,22.38,16.07,31.08,3.24,3.28,6.49,6.55,9.75,9.82,2.5,2.5,2.97,5.49,2.13,8.8-.4,1.56-1.37,2.23-3.01,2-1.57-.21-3.01-.78-4.39-1.49-12.23-6.35-23.49-14.06-33.26-23.85-8.71-8.74-17.34-17.56-26.13-26.22-7-6.9-14.81-12.61-24.33-15.65-7.92-2.52-15.94-3.51-24.18-1.92-.18.03-.38-.02-.85-.04Z"/>
    <path class="cls-1" d="M2.75,134.54c17.85-1.87,35.7-3.74,54.07-5.67-1.89-1.08-3.34-1.96-4.83-2.76-4.37-2.34-7.2-5.79-8.81-10.59-2.07-6.16-5.41-11.66-10.76-15.66-4.39-3.28-9.32-5.64-14.12-8.22-3.95-2.13-7.86-4.31-11.1-7.47C.25,77.39-2.15,64.33,2.14,56.39c2.07-3.83,5.5-5.86,9.73-6.82-2.23,2.41-4.17,4.99-5.47,7.99-1.35,3.12-1.75,6.34-.89,9.88,2.3-1.49,4.52-2.92,6.99-3.91,10.99-4.42,21.6-3.09,32,1.99,10.49,5.11,19.07,12.7,27.11,20.97,8.23,8.47,16.13,17.28,25.81,24.19.92.65.69,1.11-.17,1.48-1.43.61-2.91,1.12-4.3,1.81-1.28.64-2.76,1.43-2.31,3.16.42,1.64,1.9,2.17,3.52,2.2,3.41.07,6.33-1.28,8.97-3.26.89-.66,1.48-.69,2.39-.11,1.95,1.23,3.98,2.32,6.28,3.64-1.77.64-3.24,1.08-4.65,1.7-1.3.57-2.83,1.27-2.49,3.02.35,1.79,2.02,2.08,3.55,2.07,3.46-.02,6.66-1.03,9.5-3.01.76-.53,1.31-.56,2.12-.23,3.06,1.26,6.18,2.36,9.36,3.3.66.2,1.55.31,1.58,1.2.02.78-.67,1.18-1.32,1.54-4.03,2.2-8.48,3.18-12.82,4.5-2.02.62-4.05.74-6.14.75-35.08.12-70.16.27-105.24.41-.84,0-1.69,0-2.53,0l.02-.31ZM91.56,129.09c2.38-.06,4.65-.47,6.29-2.42.66-.78,1-1.71.39-2.68-.55-.87-1.44-.79-2.27-.58-2.63.67-5.25,1.38-7.86,2.08-.6.16-1.07.5-1.15,1.16-.08.72.26,1.26.86,1.61,1.15.68,2.4.93,3.73.83Z"/>
  </g>
  <g>
    <g>
      <path class="cls-2" d="M168.19,49.17c-1.29,1.76-3.04,3.18-5.25,4.26-2.21,1.08-4.82,1.62-7.81,1.62h-5.54l-2.35,13.17h-8.94l6.48-36.68h14.48c3.83,0,6.72.84,8.67,2.53,1.95,1.69,2.93,3.98,2.93,6.87,0,.87-.07,1.67-.21,2.4-.35,2.12-1.17,4.07-2.46,5.83ZM161.55,43.34c.07-.56.1-.96.1-1.2,0-1.11-.36-1.98-1.07-2.59-.71-.61-1.8-.91-3.27-.91h-4.86l-1.62,9.41h4.81c3.34,0,5.31-1.57,5.9-4.7Z"/>
      <path class="cls-2" d="M194.89,61.74h-13.69l-3.34,6.48h-9.35l19.75-36.68h10.35l6.79,36.68h-9.46l-1.05-6.48ZM193.85,54.95l-2.14-13.59-7,13.59h9.15Z"/>
      <path class="cls-2" d="M214.31,66c-2.49-1.72-3.74-4.17-3.74-7.34,0-.31.03-.78.1-1.41h9.3c-.1,1.32.21,2.37.94,3.14.73.77,1.85,1.15,3.34,1.15,1.36,0,2.43-.3,3.21-.89.78-.59,1.18-1.43,1.18-2.51s-.5-2.02-1.49-2.72c-.99-.7-2.53-1.48-4.62-2.35-2.02-.84-3.67-1.63-4.94-2.38-1.27-.75-2.38-1.77-3.32-3.06-.94-1.29-1.41-2.91-1.41-4.86-.04-2.4.56-4.49,1.78-6.27,1.22-1.78,2.91-3.14,5.07-4.08,2.16-.94,4.63-1.41,7.42-1.41,2.51,0,4.74.39,6.69,1.18,1.95.78,3.47,1.92,4.55,3.4,1.08,1.48,1.62,3.23,1.62,5.25,0,.52-.02.91-.05,1.15h-9.51c.03-.14.05-.35.05-.63,0-.98-.34-1.77-1.02-2.38-.68-.61-1.61-.91-2.8-.91-1.25,0-2.27.31-3.06.91-.78.61-1.18,1.44-1.18,2.48s.49,1.93,1.46,2.64c.98.71,2.49,1.54,4.55,2.48,2.06.94,3.74,1.81,5.04,2.61,1.31.8,2.43,1.87,3.37,3.21.94,1.34,1.41,2.99,1.41,4.94,0,2.16-.57,4.09-1.72,5.8-1.15,1.71-2.8,3.04-4.96,4-2.16.96-4.69,1.44-7.58,1.44-3.97,0-7.2-.86-9.69-2.59Z"/>
      <path class="cls-2" d="M251.2,66.65c-2.35-1.29-4.17-3.1-5.46-5.43-1.29-2.33-1.93-5.02-1.93-8.05,0-4.29.92-8.11,2.77-11.47,1.85-3.36,4.42-5.98,7.71-7.86,3.29-1.88,7.03-2.82,11.21-2.82,3.14,0,5.89.64,8.26,1.91,2.37,1.27,4.2,3.07,5.49,5.38,1.29,2.32,1.93,4.97,1.93,7.97,0,4.29-.92,8.13-2.77,11.52-1.85,3.4-4.42,6.04-7.73,7.94-3.31,1.9-7.07,2.85-11.29,2.85-3.1,0-5.83-.64-8.18-1.93ZM266.8,58.55c1.74-1.18,3.09-2.78,4.05-4.78.96-2,1.44-4.17,1.44-6.51,0-2.51-.7-4.48-2.09-5.9-1.39-1.43-3.34-2.14-5.85-2.14-2.3,0-4.33.59-6.09,1.78-1.76,1.18-3.12,2.76-4.08,4.73-.96,1.97-1.44,4.14-1.44,6.51,0,2.51.7,4.49,2.09,5.93,1.39,1.45,3.36,2.17,5.9,2.17,2.3,0,4.32-.59,6.06-1.78Z"/>
      <path class="cls-2" d="M287.88,66c-2.49-1.72-3.74-4.17-3.74-7.34,0-.31.03-.78.1-1.41h9.3c-.1,1.32.21,2.37.94,3.14.73.77,1.85,1.15,3.34,1.15,1.36,0,2.43-.3,3.21-.89.78-.59,1.18-1.43,1.18-2.51s-.5-2.02-1.49-2.72c-.99-.7-2.53-1.48-4.62-2.35-2.02-.84-3.67-1.63-4.94-2.38-1.27-.75-2.38-1.77-3.32-3.06-.94-1.29-1.41-2.91-1.41-4.86-.04-2.4.56-4.49,1.78-6.27,1.22-1.78,2.91-3.14,5.07-4.08,2.16-.94,4.63-1.41,7.42-1.41,2.51,0,4.74.39,6.69,1.18,1.95.78,3.47,1.92,4.55,3.4,1.08,1.48,1.62,3.23,1.62,5.25,0,.52-.02.91-.05,1.15h-9.51c.03-.14.05-.35.05-.63,0-.98-.34-1.77-1.02-2.38-.68-.61-1.61-.91-2.8-.91-1.25,0-2.27.31-3.06.91-.78.61-1.18,1.44-1.18,2.48s.49,1.93,1.46,2.64c.98.71,2.49,1.54,4.55,2.48,2.06.94,3.74,1.81,5.04,2.61,1.31.8,2.43,1.87,3.37,3.21.94,1.34,1.41,2.99,1.41,4.94,0,2.16-.57,4.09-1.72,5.8-1.15,1.71-2.8,3.04-4.96,4-2.16.96-4.69,1.44-7.58,1.44-3.97,0-7.2-.86-9.69-2.59Z"/>
      <path class="cls-2" d="M342.83,31.53l-3.87,21.9c-.14.91-.21,1.53-.21,1.88,0,1.6.45,2.83,1.36,3.68.91.85,2.25,1.28,4.02,1.28,2.09,0,3.8-.59,5.12-1.78,1.32-1.18,2.18-2.87,2.56-5.07l3.87-21.9h8.94l-3.87,21.9c-.59,3.31-1.77,6.11-3.53,8.39-1.76,2.28-3.9,3.98-6.43,5.09-2.53,1.12-5.27,1.67-8.23,1.67-3.83,0-6.92-.99-9.28-2.98s-3.53-4.86-3.53-8.62c0-1.11.1-2.3.31-3.55l3.81-21.9h8.94Z"/>
      <path class="cls-2" d="M394.56,34.12c1.99,1.72,2.98,3.96,2.98,6.71,0,.8-.07,1.55-.21,2.25-.42,2.44-1.48,4.62-3.19,6.53-1.71,1.92-3.99,3.27-6.85,4.08l5.9,14.53h-10.09l-5.17-13.85h-2.14l-2.46,13.85h-8.94l6.48-36.68h15c3.8,0,6.69.86,8.67,2.59ZM388.29,42.35c0-1.11-.36-1.98-1.07-2.59-.71-.61-1.77-.91-3.16-.91h-5.54l-1.62,9.2h5.54c1.64,0,2.93-.4,3.89-1.2.96-.8,1.58-1.93,1.85-3.4.07-.56.1-.92.1-1.1Z"/>
      <path class="cls-2" d="M429.05,46.43c-1.39,1.43-3.07,2.42-5.02,2.98,1.74.38,3.12,1.24,4.13,2.56,1.01,1.32,1.52,2.87,1.52,4.65,0,.56-.05,1.1-.16,1.62-.52,3.07-2.02,5.5-4.49,7.29-2.47,1.79-5.63,2.69-9.46,2.69h-17.09l6.48-36.68h16.51c3.31,0,5.87.68,7.68,2.04,1.81,1.36,2.72,3.24,2.72,5.64,0,.59-.05,1.2-.16,1.83-.38,2.16-1.27,3.95-2.67,5.38ZM420.74,56.1c0-1.01-.37-1.8-1.1-2.38-.73-.57-1.74-.86-3.03-.86h-6.48l-1.46,8.26h6.58c1.53,0,2.75-.35,3.66-1.04.91-.7,1.48-1.71,1.72-3.03.07-.42.1-.73.1-.94ZM420.69,45.43c.91-.66,1.46-1.62,1.67-2.87.03-.21.05-.49.05-.84,0-1.01-.33-1.79-.99-2.33-.66-.54-1.64-.81-2.93-.81h-5.85l-1.36,7.84h5.8c1.5,0,2.7-.33,3.61-.99Z"/>
      <path class="cls-2" d="M456.91,61.74h-13.69l-3.34,6.48h-9.35l19.75-36.68h10.35l6.79,36.68h-9.46l-1.05-6.48ZM455.86,54.95l-2.14-13.59-7,13.59h9.15Z"/>
      <path class="cls-2" d="M504.25,68.22h-8.94l-10.92-22.63-4.02,22.63h-8.94l6.48-36.68h8.94l10.92,22.73,4.02-22.73h8.94l-6.48,36.68Z"/>
      <path class="cls-2" d="M520.01,66.65c-2.35-1.29-4.17-3.1-5.46-5.43-1.29-2.33-1.93-5.02-1.93-8.05,0-4.29.92-8.11,2.77-11.47,1.85-3.36,4.42-5.98,7.71-7.86,3.29-1.88,7.03-2.82,11.21-2.82,3.14,0,5.89.64,8.26,1.91,2.37,1.27,4.2,3.07,5.49,5.38,1.29,2.32,1.93,4.97,1.93,7.97,0,4.29-.92,8.13-2.77,11.52-1.85,3.4-4.42,6.04-7.73,7.94-3.31,1.9-7.07,2.85-11.29,2.85-3.1,0-5.83-.64-8.18-1.93ZM535.6,58.55c1.74-1.18,3.09-2.78,4.05-4.78.96-2,1.44-4.17,1.44-6.51,0-2.51-.7-4.48-2.09-5.9-1.39-1.43-3.34-2.14-5.85-2.14-2.3,0-4.33.59-6.09,1.78-1.76,1.18-3.12,2.76-4.08,4.73-.96,1.97-1.44,4.14-1.44,6.51,0,2.51.7,4.49,2.09,5.93,1.39,1.45,3.36,2.17,5.91,2.17,2.3,0,4.32-.59,6.06-1.78Z"/>
      <path class="cls-2" d="M556.69,66c-2.49-1.72-3.74-4.17-3.74-7.34,0-.31.03-.78.1-1.41h9.3c-.1,1.32.21,2.37.94,3.14.73.77,1.85,1.15,3.34,1.15,1.36,0,2.43-.3,3.21-.89.78-.59,1.18-1.43,1.18-2.51s-.5-2.02-1.49-2.72c-.99-.7-2.54-1.48-4.62-2.35-2.02-.84-3.67-1.63-4.94-2.38-1.27-.75-2.38-1.77-3.32-3.06-.94-1.29-1.41-2.91-1.41-4.86-.04-2.4.56-4.49,1.78-6.27,1.22-1.78,2.91-3.14,5.07-4.08s4.63-1.41,7.42-1.41c2.51,0,4.74.39,6.69,1.18,1.95.78,3.47,1.92,4.55,3.4,1.08,1.48,1.62,3.23,1.62,5.25,0,.52-.02.91-.05,1.15h-9.51c.03-.14.05-.35.05-.63,0-.98-.34-1.77-1.02-2.38-.68-.61-1.61-.91-2.8-.91-1.25,0-2.27.31-3.06.91-.78.61-1.18,1.44-1.18,2.48s.49,1.93,1.46,2.64c.97.71,2.49,1.54,4.55,2.48,2.05.94,3.74,1.81,5.04,2.61,1.31.8,2.43,1.87,3.37,3.21.94,1.34,1.41,2.99,1.41,4.94,0,2.16-.58,4.09-1.72,5.8-1.15,1.71-2.8,3.04-4.96,4-2.16.96-4.69,1.44-7.58,1.44-3.97,0-7.2-.86-9.69-2.59Z"/>
    </g>
    <g>
      <path class="cls-2" d="M176.73,86.33v2.75h-4.79v14.58h-3.46v-14.58h-4.76v-2.75h13.01Z"/>
      <path class="cls-2" d="M189.47,86.33v17.33h-3.46v-17.33h3.46Z"/>
      <path class="cls-2" d="M203.44,89.08v4.49h6.14v2.65h-6.14v4.66h6.87v2.77h-10.34v-17.33h10.34v2.75h-6.87Z"/>
      <path class="cls-2" d="M234.91,103.67h-3.46l-7.76-11.78v11.78h-3.46v-17.33h3.46l7.76,11.88v-11.88h3.46v17.33Z"/>
      <path class="cls-2" d="M259.58,99.52c-.72,1.31-1.76,2.33-3.13,3.06-1.37.73-2.99,1.09-4.87,1.09h-6.16v-17.33h6.16c1.88,0,3.51.36,4.87,1.07,1.37.71,2.41,1.72,3.13,3.02.72,1.3,1.08,2.82,1.08,4.55s-.36,3.23-1.08,4.54ZM255.62,99.1c1.02-.98,1.53-2.36,1.53-4.12s-.51-3.17-1.53-4.15c-1.02-.98-2.47-1.47-4.33-1.47h-2.41v11.22h2.41c1.87,0,3.31-.49,4.33-1.47Z"/>
      <path class="cls-2" d="M281.19,100.18h-6.95l-1.23,3.49h-3.66l6.38-17.14h3.95l6.36,17.14h-3.66l-1.2-3.49ZM280.25,97.55l-2.55-7.32-2.55,7.32h5.11Z"/>
      <path class="cls-2" d="M322.16,99.52c-.72,1.31-1.76,2.33-3.13,3.06-1.37.73-2.99,1.09-4.87,1.09h-6.16v-17.33h6.16c1.88,0,3.51.36,4.87,1.07,1.37.71,2.41,1.72,3.13,3.02.72,1.3,1.08,2.82,1.08,4.55s-.36,3.23-1.08,4.54ZM318.2,99.1c1.02-.98,1.53-2.36,1.53-4.12s-.51-3.17-1.53-4.15c-1.02-.98-2.47-1.47-4.33-1.47h-2.41v11.22h2.41c1.87,0,3.31-.49,4.33-1.47Z"/>
      <path class="cls-2" d="M336.67,89.08v4.49h6.14v2.65h-6.14v4.66h6.87v2.77h-10.34v-17.33h10.34v2.75h-6.87Z"/>
      <path class="cls-2" d="M369.52,100.87h8.08v2.8h-11.91v-2.65l7.91-11.91h-7.78v-2.77h11.69v2.65l-7.98,11.88Z"/>
      <path class="cls-2" d="M398.17,100.18h-6.95l-1.23,3.49h-3.66l6.38-17.14h3.95l6.36,17.14h-3.66l-1.2-3.49ZM397.23,97.55l-2.55-7.32-2.55,7.32h5.11Z"/>
      <path class="cls-2" d="M415.72,97.23v6.43h-3.46v-17.33h6.31c2.05,0,3.59.49,4.63,1.47,1.04.98,1.56,2.32,1.56,4s-.54,2.97-1.61,3.95-2.6,1.47-4.58,1.47h-2.85ZM421.24,91.81c0-.87-.24-1.53-.71-1.99-.47-.46-1.25-.69-2.33-.69h-2.48v5.33h2.48c2.03,0,3.04-.88,3.04-2.65Z"/>
      <path class="cls-2" d="M444.93,100.18h-6.95l-1.23,3.49h-3.66l6.38-17.14h3.95l6.36,17.14h-3.66l-1.2-3.49ZM444,97.55l-2.55-7.32-2.55,7.32h5.11Z"/>
      <path class="cls-2" d="M470.81,86.33v2.75h-4.79v14.58h-3.46v-14.58h-4.76v-2.75h13.01Z"/>
      <path class="cls-2" d="M483.55,86.33v17.33h-3.46v-17.33h3.46Z"/>
      <path class="cls-2" d="M497.52,101.01h5.82v2.65h-9.28v-17.33h3.46v14.68Z"/>
      <path class="cls-2" d="M516.23,101.01h5.82v2.65h-9.28v-17.33h3.46v14.68Z"/>
      <path class="cls-2" d="M542.03,100.18h-6.95l-1.23,3.49h-3.66l6.38-17.14h3.95l6.36,17.14h-3.66l-1.2-3.49ZM541.1,97.55l-2.55-7.32-2.55,7.32h5.11Z"/>
      <path class="cls-2" d="M567.37,101.37c-.44.75-1.1,1.34-1.96,1.79-.87.45-1.92.68-3.17.68s-2.32-.21-3.29-.63-1.74-1.02-2.32-1.8-.91-1.7-.99-2.75h3.68c.08.7.36,1.29.85,1.76s1.12.7,1.93.7c.72,0,1.27-.19,1.66-.58.38-.38.58-.88.58-1.48,0-.54-.16-.99-.47-1.34-.31-.35-.7-.63-1.18-.85-.47-.21-1.13-.46-1.96-.74-1.08-.36-1.96-.72-2.65-1.07-.69-.35-1.27-.86-1.76-1.53-.48-.67-.72-1.55-.72-2.63,0-1.49.54-2.66,1.61-3.52,1.07-.86,2.49-1.29,4.26-1.29s3.29.44,4.38,1.33c1.09.88,1.71,2.06,1.85,3.54h-3.73c-.1-.62-.36-1.13-.79-1.53-.43-.4-1.01-.6-1.74-.6-.64,0-1.15.17-1.55.5s-.59.82-.59,1.46c0,.51.15.93.45,1.26s.69.61,1.15.82c.47.21,1.1.45,1.9.71,1.11.39,2.02.76,2.71,1.1.7.34,1.29.86,1.78,1.55.49.69.74,1.59.74,2.7,0,.88-.22,1.7-.66,2.44Z"/>
    </g>
  </g>
</svg>